<svg baseProfile="full" height="100%" version="1.1" width="100%" xmlns="http://www.w3.org/2000/svg" xmlns:ev="http://www.w3.org/2001/xml-events" xmlns:xlink="http://www.w3.org/1999/xlink"><defs /><g><polygon fill="#aaa" fill-opacity="1.0" points="375.505012273136,412.3867245881519 398.35579445817086,427.5209146828306 423.0163630136372,415.13897398872 424.494987726864,387.6132754118481 401.64420554182914,372.4790853171694 376.9836369863628,384.86102601128" stroke="#444" stroke-linejoin="round" stroke-width="3" /></g><g><polygon fill="#b55" fill-opacity="1.0" points="350.476545841782,397.80465790816646 357.111776561415,403.4913553500389 369.46191633874497,428.1428482409162 370.94054105197176,438.6518095629958 359.14475941940606,419.67402906630895" stroke="#444" stroke-linejoin="round" stroke-width="3" /></g><g><polygon fill="#fbb" fill-opacity="1.0" points="400.77448317495157,356.1164440440982 376.61573911047515,357.8970186371839 383.2509698301081,363.58371607905633 410.7059342355009,365.17413411915953 422.10820075201883,360.5323173254314" stroke="#444" stroke-linejoin="round" stroke-width="3" /></g><g><polygon fill="#a55" fill-opacity="1.0" points="443.48035822382695,403.19220599698207 434.8121446462029,424.0573082698506 418.45189179247296,441.404058963564 416.97326707924617,430.8950976414843 432.078091707309,407.83402279071015" stroke="#444" stroke-linejoin="round" stroke-width="3" /></g><g><polygon fill="#aaa" fill-opacity="1.0" points="361.8788123583,376.0606642104478 376.61573911047515,357.8970186371839 383.2509698301081,363.58371607905633 371.84870331359014,385.327709776775 357.111776561415,403.4913553500389 350.47654584178207,397.80465790816646" stroke="#444" stroke-linejoin="round" stroke-width="3" /></g><g><polygon fill="#ccc" fill-opacity="1.0" points="370.94054105197176,438.6518095629958 395.6011096074381,443.37204577287577 418.45189179247296,441.404058963564 416.97326707924617,430.8950976414843 392.3126985237799,426.1748614316044 369.46191633874497,428.1428482409162" stroke="#444" stroke-linejoin="round" stroke-width="3" /></g><g><polygon fill="#bbb" fill-opacity="1.0" points="410.7059342355009,365.17413411915953 422.10820075201883,360.5323173254314 436.84512750419395,380.4033316511191 443.4803582238269,403.19220599698207 432.07809170730894,407.83402279071015 417.3411649551338,387.9630084650225" stroke="#444" stroke-linejoin="round" stroke-width="3" /></g><g><polygon fill="#d66" fill-opacity="1.0" points="332.9530324969386,405.2719299431246 357.111776561415,403.4913553500389 369.46191633874497,428.1428482409162 353.101663485015,445.48959893462956 330.7059677046946,431.19717320126125" stroke="#444" stroke-linejoin="round" stroke-width="3" /></g><g><polygon fill="#844" fill-opacity="1.0" points="393.1824208906574,399.8030292736645 371.84870331359014,385.327709776775 357.111776561415,403.4913553500389 369.46191633874497,428.1428482409162 392.3126985237799,426.1748614316044" stroke="#444" stroke-linejoin="round" stroke-width="3" /></g><g><polygon fill="#e88" fill-opacity="1.0" points="410.7059342355009,365.17413411915953 383.2509698301081,363.58371607905633 371.84870331359014,385.327709776775 393.1824208906574,399.8030292736645 417.3411649551338,387.9630084650225" stroke="#444" stroke-linejoin="round" stroke-width="3" /></g><g><polygon fill="#944" fill-opacity="1.0" points="410.7059342355009,365.17413411915953 383.2509698301081,363.5837160790564 374.58275625248405,341.71434492091385 396.9784520328045,330.01660611292266 419.3741478131249,344.30903184629096" stroke="#444" stroke-linejoin="round" stroke-width="3" /></g><g><polygon fill="#944" fill-opacity="1.0" points="393.1824208906574,399.8030292736645 417.3411649551338,387.9630084650225 432.07809170730894,407.83402279071015 416.97326707924617,430.8950976414843 392.31269852377983,426.1748614316044" stroke="#444" stroke-linejoin="round" stroke-width="3" /></g><g><polygon fill="#c66" fill-opacity="1.0" points="428.7690487118119,449.8728781381712 416.97326707924617,430.8950976414843 432.07809170730894,407.8340227907102 453.41180928437626,412.2498960720434 451.1647444921323,438.17513933018006" stroke="#444" stroke-linejoin="round" stroke-width="3" /></g><g><polygon fill="#a55" fill-opacity="1.0" points="356.7438786855273,376.5273479759428 371.84870331359014,385.327709776775 357.111776561415,403.4913553500389 332.9530324969386,405.2719299431246 332.083310130061,388.9092886700534" stroke="#444" stroke-linejoin="round" stroke-width="3" /></g><g><polygon fill="#a55" fill-opacity="1.0" points="371.84870331359014,385.327709776775 383.2509698301081,363.58371607905633 374.58275625248405,341.7143449209138 358.2225033987541,349.0016493990709 356.7438786855273,376.5273479759428" stroke="#444" stroke-linejoin="round" stroke-width="3" /></g><g><polygon fill="#e99" fill-opacity="1.0" points="392.31269852377983,426.1748614316044 369.46191633874497,428.1428482409162 353.101663485015,445.48959893462956 364.8974451175808,454.4079332157602 389.55801367304707,442.0259925216495" stroke="#444" stroke-linejoin="round" stroke-width="3" /></g><g><polygon fill="#faa" fill-opacity="1.0" points="389.55801367304707,442.0259925216495 392.31269852377983,426.1748614316044 416.97326707924617,430.8950976414843 428.7690487118119,449.8728781381712 412.40879585808193,457.16018261632826" stroke="#444" stroke-linejoin="round" stroke-width="3" /></g><g><polygon fill="#944" fill-opacity="1.0" points="419.3741478131249,344.30903184629096 410.7059342355009,365.17413411915953 417.3411649551338,387.9630084650225 429.69130473246383,380.7530647042935 431.1699294456906,353.22736612742153" stroke="#444" stroke-linejoin="round" stroke-width="3" /></g><g><polygon fill="#b55" fill-opacity="1.0" points="432.07809170730894,407.83402279071015 417.3411649551338,387.9630084650225 429.69130473246383,380.7530647042934 452.5420869174987,395.8872547989722 453.41180928437626,412.2498960720434" stroke="#444" stroke-linejoin="round" stroke-width="3" /></g><g><polygon fill="#d66" fill-opacity="1.0" points="328.45890291245064,431.1322519180385 304.3001588479743,442.9722727266805 291.9500190706443,450.1822164874095 308.3102719243742,442.8949120092524 330.7059677046947,431.19717320126125" stroke="#444" stroke-linejoin="round" stroke-width="3" /></g><g><polygon fill="#aaa" fill-opacity="1.0" points="332.083310130061,388.9092886700534 356.7438786855273,376.5273479759428 358.2225033987541,349.0016493990709 335.37172121371924,333.8674593043922 310.71115265825296,346.2493999985028 309.23252794502616,373.77509857537467" stroke="#444" stroke-linejoin="round" stroke-width="3" /></g><g><polygon fill="#844" fill-opacity="1.0" points="330.7059677046946,431.19717320126125 332.9530324969386,405.2719299431246 332.083310130061,388.9092886700534 329.3286252793282,404.76041976009856 328.45890291245064,431.1322519180385" stroke="#444" stroke-linejoin="round" stroke-width="3" /></g><g><polygon fill="#e77" fill-opacity="1.0" points="364.8974451175808,454.4079332157601 353.101663485015,445.48959893462956 330.7059677046947,431.19717320126125 328.45890291245064,431.1322519180385 349.79262048951796,445.607571414928" stroke="#444" stroke-linejoin="round" stroke-width="3" /></g><g><polygon fill="#e77" fill-opacity="1.0" points="356.7438786855273,376.5273479759428 371.84870331359014,385.327709776775 393.1824208906574,399.8030292736645 390.9353560984135,399.7381079904417 368.53966031809307,385.44568225707343" stroke="#444" stroke-linejoin="round" stroke-width="3" /></g><g><polygon fill="#844" fill-opacity="1.0" points="392.3126985237799,426.1748614316044 393.1824208906574,399.8030292736645 390.9353560984135,399.7381079904417 388.6882913061695,425.66335124857835 389.55801367304707,442.0259925216495" stroke="#444" stroke-linejoin="round" stroke-width="3" /></g><g><polygon fill="#aaa" fill-opacity="1.0" points="364.8974451175808,454.4079332157601 363.41882040435394,481.933631792632 386.26960258938885,497.0678218873108 410.93017114485514,484.6858811932002 412.40879585808193,457.16018261632826 389.55801367304707,442.0259925216495" stroke="#444" stroke-linejoin="round" stroke-width="3" /></g><g><polygon fill="#d66" fill-opacity="1.0" points="358.2225033987541,349.0016493990709 374.58275625248405,341.71434492091385 396.9784520328045,330.01660611292266 394.73138724056054,329.9516848296999 370.5726431760841,341.7917056383419" stroke="#444" stroke-linejoin="round" stroke-width="3" /></g><g><polygon fill="#d66" fill-opacity="1.0" points="393.1824208906574,399.8030292736645 417.3411649551338,387.9630084650225 429.69130473246383,380.7530647042935 413.3310518787339,388.04036918245055 390.9353560984135,399.73810799044173" stroke="#444" stroke-linejoin="round" stroke-width="3" /></g><g><polygon fill="#844" fill-opacity="1.0" points="394.73138724056054,329.9516848296999 396.9784520328045,330.01660611292266 399.22551682504843,304.091362854786 398.35579445817086,287.72872158171486 395.6011096074381,303.57985267175997" stroke="#444" stroke-linejoin="round" stroke-width="3" /></g><g><polygon fill="#e77" fill-opacity="1.0" points="394.73138724056054,329.9516848296999 396.9784520328045,330.01660611292266 419.3741478131249,344.30903184629096 431.1699294456906,353.22736612742153 416.0651048176278,344.4270043265894" stroke="#444" stroke-linejoin="round" stroke-width="3" /></g><g><polygon fill="#d66" fill-opacity="1.0" points="412.40879585808193,457.16018261632826 428.7690487118119,449.8728781381712 451.1647444921323,438.17513933018006 448.9176796998883,438.11021804695724 424.7589356354119,449.95023885559925" stroke="#444" stroke-linejoin="round" stroke-width="3" /></g><g><polygon fill="#aaa" fill-opacity="1.0" points="431.1699294456906,353.22736612742153 429.69130473246383,380.7530647042934 452.5420869174987,395.8872547989722 477.202655472965,383.5053141048616 478.68128018619177,355.9796155279897 455.8304980011569,340.84542543331094" stroke="#444" stroke-linejoin="round" stroke-width="3" /></g><g><polygon fill="#844" fill-opacity="1.0" points="451.1647444921323,438.17513933018006 453.41180928437626,412.2498960720434 452.5420869174987,395.8872547989722 449.7874020667659,411.7383858890173 448.9176796998883,438.11021804695724" stroke="#444" stroke-linejoin="round" stroke-width="3" /></g><g><polygon fill="#e77" fill-opacity="1.0" points="485.3562219050184,461.38589934467893 470.2513972769556,452.5855375438467 448.9176796998883,438.11021804695724 451.1647444921323,438.17513933018006 473.5604402724527,452.46756506354836" stroke="#444" stroke-linejoin="round" stroke-width="3" /></g><g><polygon fill="#b55" fill-opacity="1.0" points="304.3001588479743,442.9722727266805 289.56323209579915,423.1012584009928 268.2295145187319,418.6853851196596 269.0992368856094,435.0480263927308 291.9500190706443,450.1822164874095" stroke="#444" stroke-linejoin="round" stroke-width="3" /></g><g><polygon fill="#944" fill-opacity="1.0" points="310.9353895676072,465.76114707254345 304.3001588479743,442.9722727266805 291.9500190706443,450.1822164874095 290.47139435741747,477.7079150642814 302.26717598998323,486.62624934541196" stroke="#444" stroke-linejoin="round" stroke-width="3" /></g><g><polygon fill="#faa" fill-opacity="1.0" points="332.083310130061,388.90928867005346 309.23252794502616,373.77509857537467 292.8722750912962,381.0624030535318 304.6680567238619,400.04018355021867 329.3286252793282,404.76041976009856" stroke="#444" stroke-linejoin="round" stroke-width="3" /></g><g><polygon fill="#e99" fill-opacity="1.0" points="332.083310130061,388.9092886700534 356.7438786855273,376.5273479759428 368.539660318093,385.4456822570734 352.17940746436307,402.7924329507868 329.3286252793282,404.76041976009856" stroke="#444" stroke-linejoin="round" stroke-width="3" /></g><g><polygon fill="#b55" fill-opacity="1.0" points="334.5019988468417,317.504818031321 355.835716423909,321.9206913126542 370.5726431760841,341.7917056383419 358.2225033987541,349.0016493990709 335.37172121371924,333.8674593043921" stroke="#444" stroke-linejoin="round" stroke-width="3" /></g><g><polygon fill="#a55" fill-opacity="1.0" points="364.89744511758073,454.4079332157602 363.41882040435394,481.933631792632 347.058567550624,489.22093627078914 338.39035397299995,467.3515651126466 349.79262048951796,445.607571414928" stroke="#444" stroke-linejoin="round" stroke-width="3" /></g><g><polygon fill="#944" fill-opacity="1.0" points="358.2225033987541,349.0016493990709 356.7438786855273,376.5273479759428 368.53966031809307,385.4456822570734 377.20787389571706,364.58057998420486 370.5726431760841,341.7917056383419" stroke="#444" stroke-linejoin="round" stroke-width="3" /></g><g><polygon fill="#a55" fill-opacity="1.0" points="388.6882913061695,425.66335124857835 389.55801367304707,442.0259925216495 364.8974451175808,454.4079332157601 349.79262048951796,445.607571414928 364.5295472416931,427.4439258416641" stroke="#444" stroke-linejoin="round" stroke-width="3" /></g><g><polygon fill="#faa" fill-opacity="1.0" points="375.505012273136,272.5945314870361 398.35579445817086,287.72872158171486 395.60110960743805,303.57985267175997 370.94054105197176,298.8596164618801 359.14475941940606,279.8818359651932" stroke="#444" stroke-linejoin="round" stroke-width="3" /></g><g><polygon fill="#c66" fill-opacity="1.0" points="268.22951451873183,418.6853851196596 289.5632320957991,423.1012584009928 304.6680567238619,400.04018355021867 292.87227509129616,381.0624030535318 270.4765793109758,392.7601418615229" stroke="#444" stroke-linejoin="round" stroke-width="3" /></g><g><polygon fill="#b55" fill-opacity="1.0" points="424.75893563541194,449.9502388555993 412.40879585808193,457.1601826163283 389.55801367304707,442.0259925216495 388.6882913061695,425.6633512485784 410.02200888323677,430.0792245299116" stroke="#444" stroke-linejoin="round" stroke-width="3" /></g><g><polygon fill="#e99" fill-opacity="1.0" points="395.6011096074381,303.57985267175997 398.3557944581709,287.72872158171486 423.0163630136372,275.3467808876042 434.8121446462029,284.26511516873484 418.45189179247296,301.6118658624482" stroke="#444" stroke-linejoin="round" stroke-width="3" /></g><g><polygon fill="#a55" fill-opacity="1.0" points="431.1699294456906,353.22736612742153 429.69130473246383,380.7530647042934 413.3310518787339,388.04036918245055 404.66283830110984,366.170998024308 416.0651048176278,344.4270043265894" stroke="#444" stroke-linejoin="round" stroke-width="3" /></g><g><polygon fill="#944" fill-opacity="1.0" points="424.75893563541194,449.9502388555993 412.40879585808193,457.1601826163283 410.93017114485514,484.6858811932002 422.72595277742084,493.6042154743308 431.3941663550449,472.73911320146226" stroke="#444" stroke-linejoin="round" stroke-width="3" /></g><g><polygon fill="#faa" fill-opacity="1.0" points="413.3310518787339,388.04036918245055 429.69130473246383,380.7530647042934 452.5420869174987,395.8872547989722 449.7874020667659,411.7383858890173 425.1268335112996,407.0181496791374" stroke="#444" stroke-linejoin="round" stroke-width="3" /></g><g><polygon fill="#a55" fill-opacity="1.0" points="455.8304980011569,340.84542543331094 431.1699294456906,353.22736612742153 416.0651048176278,344.4270043265894 430.802031569803,326.2633587533255 454.96077563427934,324.48278416023976" stroke="#444" stroke-linejoin="round" stroke-width="3" /></g><g><polygon fill="#944" fill-opacity="1.0" points="304.3001588479743,442.9722727266805 289.5632320957991,423.1012584009928 304.6680567238619,400.04018355021867 329.3286252793282,404.76041976009856 328.45890291245064,431.1322519180385" stroke="#444" stroke-linejoin="round" stroke-width="3" /></g><g><polygon fill="#944" fill-opacity="1.0" points="310.9353895676072,465.76114707254345 302.2671759899832,486.626249345412 324.6628717703036,500.91867507878027 347.058567550624,489.22093627078914 338.390353973,467.3515651126466" stroke="#444" stroke-linejoin="round" stroke-width="3" /></g><g><polygon fill="#e88" fill-opacity="1.0" points="310.9353895676072,465.76114707254345 304.3001588479743,442.9722727266805 328.45890291245064,431.1322519180385 349.79262048951796,445.607571414928 338.390353973,467.3515651126466" stroke="#444" stroke-linejoin="round" stroke-width="3" /></g><g><polygon fill="#c66" fill-opacity="1.0" points="355.835716423909,321.9206913126542 370.94054105197176,298.8596164618801 359.14475941940606,279.8818359651932 336.74906363908565,291.57957477318433 334.50199884684173,317.504818031321" stroke="#444" stroke-linejoin="round" stroke-width="3" /></g><g><polygon fill="#e99" fill-opacity="1.0" points="449.7874020667659,411.7383858890173 472.6381842518008,409.77039907970556 488.9984371055307,392.4236483859922 477.202655472965,383.5053141048616 452.5420869174987,395.8872547989722" stroke="#444" stroke-linejoin="round" stroke-width="3" /></g><g><polygon fill="#a55" fill-opacity="1.0" points="485.3562219050184,461.3858993446789 483.8775971917916,488.91159792155077 467.51734433806166,496.1989023997079 458.8491307604377,474.32953124156535 470.2513972769556,452.5855375438467" stroke="#444" stroke-linejoin="round" stroke-width="3" /></g><g><polygon fill="#844" fill-opacity="1.0" points="352.1794074643631,402.7924329507868 329.3286252793282,404.76041976009856 328.4589029124507,431.1322519180385 349.79262048951796,445.607571414928 364.5295472416931,427.4439258416641" stroke="#444" stroke-linejoin="round" stroke-width="3" /></g><g><polygon fill="#d66" fill-opacity="1.0" points="352.1794074643631,402.7924329507868 368.53966031809307,385.44568225707343 390.9353560984135,399.73810799044173 388.6882913061695,425.6633512485784 364.5295472416931,427.4439258416641" stroke="#444" stroke-linejoin="round" stroke-width="3" /></g><g><polygon fill="#a55" fill-opacity="1.0" points="509.1470680936072,432.64131737749716 484.98832402913075,434.42189197058286 470.25139727695563,452.5855375438467 485.3562219050184,461.3858993446789 510.0167904604847,449.0039586505683" stroke="#444" stroke-linejoin="round" stroke-width="3" /></g><g><polygon fill="#944" fill-opacity="1.0" points="370.5726431760841,341.7917056383419 394.73138724056054,329.9516848296999 395.6011096074381,303.57985267175997 370.94054105197176,298.8596164618801 355.835716423909,321.9206913126542" stroke="#444" stroke-linejoin="round" stroke-width="3" /></g><g><polygon fill="#944" fill-opacity="1.0" points="404.66283830110984,366.170998024308 377.20787389571706,364.58057998420486 368.53966031809307,385.4456822570734 390.9353560984135,399.7381079904417 413.3310518787339,388.04036918245055" stroke="#444" stroke-linejoin="round" stroke-width="3" /></g><g><polygon fill="#c66" fill-opacity="1.0" points="388.6882913061695,425.6633512485784 390.9353560984135,399.73810799044173 413.3310518787339,388.04036918245055 425.1268335112996,407.0181496791374 410.02200888323677,430.0792245299116" stroke="#444" stroke-linejoin="round" stroke-width="3" /></g><g><polygon fill="#e88" fill-opacity="1.0" points="370.5726431760841,341.7917056383419 394.73138724056054,329.9516848296999 416.0651048176278,344.4270043265894 404.66283830110984,366.170998024308 377.20787389571706,364.58057998420486" stroke="#444" stroke-linejoin="round" stroke-width="3" /></g><g><polygon fill="#844" fill-opacity="1.0" points="395.6011096074381,303.57985267175997 394.73138724056054,329.9516848296999 416.0651048176278,344.4270043265894 430.8020315698029,326.2633587533255 418.45189179247296,301.6118658624482" stroke="#444" stroke-linejoin="round" stroke-width="3" /></g><g><polygon fill="#d66" fill-opacity="1.0" points="457.2078404265233,298.5575409021031 434.8121446462029,284.26511516873484 418.45189179247296,301.6118658624482 430.802031569803,326.26335875332546 454.96077563427934,324.48278416023976" stroke="#444" stroke-linejoin="round" stroke-width="3" /></g><g><polygon fill="#944" fill-opacity="1.0" points="410.02200888323677,430.0792245299115 425.1268335112996,407.0181496791374 449.7874020667659,411.7383858890173 448.9176796998883,438.11021804695724 424.7589356354119,449.95023885559925" stroke="#444" stroke-linejoin="round" stroke-width="3" /></g><g><polygon fill="#944" fill-opacity="1.0" points="431.3941663550449,472.7391132014622 458.8491307604377,474.3295312415654 467.51734433806166,496.1989023997079 445.12164855774125,507.8966412076991 422.72595277742084,493.6042154743308" stroke="#444" stroke-linejoin="round" stroke-width="3" /></g><g><polygon fill="#e88" fill-opacity="1.0" points="431.39416635504483,472.73911320146226 458.8491307604376,474.3295312415654 470.2513972769556,452.5855375438467 448.9176796998883,438.11021804695724 424.7589356354119,449.9502388555993" stroke="#444" stroke-linejoin="round" stroke-width="3" /></g><g><polygon fill="#844" fill-opacity="1.0" points="470.2513972769556,452.5855375438467 484.98832402913075,434.42189197058286 472.63818425180074,409.77039907970556 449.7874020667659,411.7383858890173 448.9176796998883,438.11021804695724" stroke="#444" stroke-linejoin="round" stroke-width="3" /></g><g><polygon fill="#d66" fill-opacity="1.0" points="509.1470680936072,432.64131737749716 484.98832402913075,434.42189197058286 472.6381842518008,409.77039907970556 488.99843710553074,392.4236483859922 511.39413288585115,406.7160741193605" stroke="#444" stroke-linejoin="round" stroke-width="3" /></g><g><polygon fill="#b55" fill-opacity="1.0" points="290.8392922333051,364.87972933726167 303.18943201063513,389.531222228139 304.6680567238619,400.0401835502186 292.87227509129616,381.06240305353174 284.2040615136722,359.19303189538925" stroke="#444" stroke-linejoin="round" stroke-width="3" /></g><g><polygon fill="#fbb" fill-opacity="1.0" points="334.5019988468417,317.504818031321 355.835716423909,321.9206913126542 344.43344990739104,326.5625081063823 316.9784855019982,324.9720900662792 310.3432547823653,319.2853926244067" stroke="#444" stroke-linejoin="round" stroke-width="3" /></g><g><polygon fill="#b55" fill-opacity="1.0" points="347.058567550624,489.22093627078914 338.390353973,467.35156511264665 345.02558469263295,473.03826255451906 357.3757244699629,497.6897554453964 358.8543491831897,508.198716767476" stroke="#444" stroke-linejoin="round" stroke-width="3" /></g><g><polygon fill="#a55" fill-opacity="1.0" points="368.53966031809307,385.4456822570734 377.20787389571706,364.58057998420486 365.8056073791991,369.222396777933 350.7007827511363,392.2834716287071 352.17940746436307,402.7924329507868" stroke="#444" stroke-linejoin="round" stroke-width="3" /></g><g><polygon fill="#aaa" fill-opacity="1.0" points="305.57621898548024,346.7160837639978 290.8392922333051,364.87972933726167 284.2040615136722,359.19303189538925 295.6063280301902,337.4490381976706 310.3432547823653,319.2853926244067 316.97848550199825,324.9720900662792" stroke="#444" stroke-linejoin="round" stroke-width="3" /></g><g><polygon fill="#fbb" fill-opacity="1.0" points="410.02200888323677,430.0792245299116 388.6882913061695,425.6633512485784 364.5295472416931,427.4439258416641 371.164777961326,433.1306232835365 398.6197423667188,434.7210413236397" stroke="#444" stroke-linejoin="round" stroke-width="3" /></g><g><polygon fill="#ccc" fill-opacity="1.0" points="326.04021419567,387.5632354188272 303.18943201063513,389.531222228139 304.6680567238619,400.04018355021867 329.3286252793282,404.76041976009856 352.1794074643631,402.7924329507868 350.7007827511363,392.2834716287071" stroke="#444" stroke-linejoin="round" stroke-width="3" /></g><g><polygon fill="#b55" fill-opacity="1.0" points="411.2980690207428,371.8576954661804 404.66283830110984,366.170998024308 413.3310518787339,388.04036918245055 425.1268335112996,407.0181496791374 423.6482087980728,396.5091883570577" stroke="#444" stroke-linejoin="round" stroke-width="3" /></g><g><polygon fill="#a55" fill-opacity="1.0" points="431.39416635504483,472.7391132014622 419.9918998385269,477.38092999519034 404.8870752104641,500.44200484596445 406.3656999236909,510.95096616804415 422.72595277742084,493.6042154743308" stroke="#444" stroke-linejoin="round" stroke-width="3" /></g><g><polygon fill="#aaa" fill-opacity="1.0" points="349.79262048951796,445.607571414928 338.390353973,467.3515651126466 345.02558469263295,473.038262554519 359.76251144480807,454.87461698125514 371.164777961326,433.1306232835365 364.5295472416931,427.4439258416641" stroke="#444" stroke-linejoin="round" stroke-width="3" /></g><g><polygon fill="#bbb" fill-opacity="1.0" points="370.5726431760841,341.7917056383419 355.835716423909,321.9206913126542 344.43344990739104,326.5625081063823 351.068680627024,349.3513824522453 365.8056073791991,369.222396777933 377.20787389571706,364.58057998420486" stroke="#444" stroke-linejoin="round" stroke-width="3" /></g><g><polygon fill="#a55" fill-opacity="1.0" points="278.1609655792812,427.7430751947209 289.5632320957991,423.1012584009928 304.6680567238619,400.04018355021867 303.18943201063513,389.531222228139 286.8291791569052,406.87797292185235" stroke="#444" stroke-linejoin="round" stroke-width="3" /></g><g><polygon fill="#fbb" fill-opacity="1.0" points="454.96077563427934,324.4827841602398 430.802031569803,326.2633587533255 437.4372622894359,331.95005619519793 464.8922266948287,333.5404742353011 476.29449321134666,328.89865744157294" stroke="#444" stroke-linejoin="round" stroke-width="3" /></g><g><polygon fill="#ccc" fill-opacity="1.0" points="380.2265066549978,495.72176863608456 404.8870752104641,500.44200484596445 406.3656999236909,510.95096616804415 383.51491773865604,512.918952977356 358.8543491831897,508.198716767476 357.37572446996296,497.6897554453963" stroke="#444" stroke-linejoin="round" stroke-width="3" /></g><g><polygon fill="#fbb" fill-opacity="1.0" points="338.390353973,467.3515651126466 310.9353895676072,465.76114707254345 299.5331230510892,470.40296386627153 320.8668406281565,474.81883714760477 345.02558469263295,473.038262554519" stroke="#444" stroke-linejoin="round" stroke-width="3" /></g><g><polygon fill="#a55" fill-opacity="1.0" points="471.15955953857394,399.26143775762586 472.63818425180074,409.77039907970556 488.9984371055307,392.4236483859922 497.6666506831547,371.5585461131236 486.2643841666368,376.20036290685175" stroke="#444" stroke-linejoin="round" stroke-width="3" /></g><g><polygon fill="#bbb" fill-opacity="1.0" points="431.39416635504483,472.7391132014622 419.9918998385269,477.38092999519034 405.25497308635175,457.5099156695026 398.6197423667188,434.72104132363967 410.02200888323677,430.0792245299115 424.7589356354119,449.95023885559925" stroke="#444" stroke-linejoin="round" stroke-width="3" /></g><g><polygon fill="#aaa" fill-opacity="1.0" points="430.8020315698029,326.2633587533255 416.0651048176278,344.4270043265894 404.66283830110984,366.170998024308 411.2980690207428,371.8576954661804 426.0349957729179,353.69404989291655 437.43726228943586,331.95005619519793" stroke="#444" stroke-linejoin="round" stroke-width="3" /></g><g><polygon fill="#a55" fill-opacity="1.0" points="355.835716423909,321.9206913126542 370.94054105197176,298.8596164618801 369.46191633874497,288.3506551398004 353.101663485015,305.6974058335138 344.43344990739104,326.5625081063823" stroke="#444" stroke-linejoin="round" stroke-width="3" /></g><g><polygon fill="#b55" fill-opacity="1.0" points="350.7007827511363,392.2834716287071 352.1794074643631,402.7924329507868 364.5295472416931,427.4439258416641 371.164777961326,433.1306232835365 362.49656438370204,411.261252125394" stroke="#444" stroke-linejoin="round" stroke-width="3" /></g><g><polygon fill="#ccc" fill-opacity="1.0" points="471.15955953857394,399.2614377576259 472.63818425180074,409.77039907970556 449.7874020667659,411.7383858890173 425.1268335112996,407.0181496791374 423.6482087980728,396.5091883570577 446.49899098310766,394.54120154774597" stroke="#444" stroke-linejoin="round" stroke-width="3" /></g><g><polygon fill="#fbb" fill-opacity="1.0" points="404.66283830110984,366.170998024308 377.20787389571706,364.58057998420486 365.8056073791991,369.222396777933 387.13932495626636,373.6382700592662 411.2980690207428,371.8576954661804" stroke="#444" stroke-linejoin="round" stroke-width="3" /></g><g><polygon fill="#bbb" fill-opacity="1.0" points="497.6666506831547,371.5585461131236 486.2643841666368,376.20036290685175 471.52745741446165,356.329348581164 464.89222669482865,333.5404742353011 476.29449321134666,328.89865744157294 491.0314199635218,348.76967176726066" stroke="#444" stroke-linejoin="round" stroke-width="3" /></g><g><polygon fill="#a55" fill-opacity="1.0" points="410.02200888323677,430.0792245299116 425.1268335112996,407.0181496791374 423.6482087980728,396.5091883570578 407.28795594434285,413.85593905077116 398.6197423667188,434.7210413236397" stroke="#444" stroke-linejoin="round" stroke-width="3" /></g><g><polygon fill="#b55" fill-opacity="1.0" points="430.8020315698029,326.2633587533255 418.45189179247296,301.6118658624482 416.97326707924617,291.1029045403685 428.7690487118119,310.0806850370554 437.43726228943586,331.95005619519793" stroke="#444" stroke-linejoin="round" stroke-width="3" /></g><g><polygon fill="#fbb" fill-opacity="1.0" points="458.8491307604377,474.3295312415654 465.48436148007056,480.0162286834378 441.3256174155942,481.7968032765235 419.9918998385269,477.38092999519034 431.39416635504483,472.73911320146226" stroke="#444" stroke-linejoin="round" stroke-width="3" /></g><g><polygon fill="#b55" fill-opacity="1.0" points="491.6235547487637,440.10858941245533 484.98832402913075,434.42189197058286 472.63818425180074,409.7703990797056 471.15955953857394,399.2614377576259 482.95534117113965,418.23921825431273" stroke="#444" stroke-linejoin="round" stroke-width="3" /></g><g><polygon fill="#d66" fill-opacity="1.0" points="286.8291791569052,406.87797292185235 264.4334833765848,392.58554718848404 266.68054816882875,366.66030393034737 290.8392922333051,364.87972933726167 303.18943201063513,389.531222228139" stroke="#444" stroke-linejoin="round" stroke-width="3" /></g><g><polygon fill="#844" fill-opacity="1.0" points="290.8392922333051,364.87972933726167 303.18943201063513,389.531222228139 326.04021419567,387.5632354188272 326.90993656254756,361.1914032608872 305.57621898548024,346.7160837639978" stroke="#444" stroke-linejoin="round" stroke-width="3" /></g><g><polygon fill="#e88" fill-opacity="1.0" points="326.90993656254756,361.1914032608873 305.57621898548024,346.7160837639978 316.9784855019982,324.9720900662792 344.43344990739104,326.5625081063823 351.068680627024,349.3513824522453" stroke="#444" stroke-linejoin="round" stroke-width="3" /></g><g><polygon fill="#944" fill-opacity="1.0" points="330.7059677046946,291.40498010014545 353.101663485015,305.69740583351376 344.43344990739104,326.5625081063823 316.97848550199825,324.9720900662792 308.3102719243742,303.1027189081366" stroke="#444" stroke-linejoin="round" stroke-width="3" /></g><g><polygon fill="#944" fill-opacity="1.0" points="351.068680627024,349.3513824522453 365.8056073791991,369.222396777933 350.7007827511363,392.2834716287071 326.04021419567,387.5632354188272 326.90993656254756,361.1914032608873" stroke="#444" stroke-linejoin="round" stroke-width="3" /></g><g><polygon fill="#d66" fill-opacity="1.0" points="318.61977583591255,500.74408040574144 320.8668406281565,474.81883714760477 345.02558469263295,473.038262554519 357.3757244699629,497.6897554453963 341.01547161623296,515.0365061391097" stroke="#444" stroke-linejoin="round" stroke-width="3" /></g><g><polygon fill="#844" fill-opacity="1.0" points="357.37572446996296,497.6897554453964 380.2265066549978,495.7217686360846 381.09622902187533,469.3499364781446 359.76251144480807,454.87461698125514 345.02558469263295,473.03826255451906" stroke="#444" stroke-linejoin="round" stroke-width="3" /></g><g><polygon fill="#e88" fill-opacity="1.0" points="359.76251144480807,454.87461698125514 371.164777961326,433.1306232835365 398.6197423667188,434.72104132363967 405.25497308635175,457.5099156695026 381.09622902187533,469.3499364781446" stroke="#444" stroke-linejoin="round" stroke-width="3" /></g><g><polygon fill="#c66" fill-opacity="1.0" points="387.13932495626636,373.6382700592662 365.8056073791991,369.222396777933 350.7007827511363,392.2834716287071 362.49656438370204,411.261252125394 384.89226016402245,399.56351331740285" stroke="#444" stroke-linejoin="round" stroke-width="3" /></g><g><polygon fill="#944" fill-opacity="1.0" points="362.49656438370204,411.261252125394 371.164777961326,433.1306232835365 398.6197423667188,434.72104132363967 407.28795594434285,413.85593905077116 384.89226016402245,399.56351331740285" stroke="#444" stroke-linejoin="round" stroke-width="3" /></g><g><polygon fill="#944" fill-opacity="1.0" points="405.25497308635175,457.5099156695026 419.9918998385269,477.38092999519034 404.8870752104641,500.44200484596445 380.22650665499776,495.7217686360846 381.09622902187533,469.3499364781446" stroke="#444" stroke-linejoin="round" stroke-width="3" /></g><g><polygon fill="#a55" fill-opacity="1.0" points="290.8392922333052,364.87972933726167 266.68054816882875,366.66030393034737 265.8108258019512,350.2976626572762 290.47139435741747,337.9157219631656 305.5762189854803,346.7160837639978" stroke="#444" stroke-linejoin="round" stroke-width="3" /></g><g><polygon fill="#d66" fill-opacity="1.0" points="411.2980690207428,371.8576954661804 387.13932495626636,373.6382700592662 384.89226016402245,399.56351331740285 407.2879559443428,413.85593905077116 423.6482087980728,396.5091883570577" stroke="#444" stroke-linejoin="round" stroke-width="3" /></g><g><polygon fill="#844" fill-opacity="1.0" points="423.6482087980728,396.5091883570577 446.49899098310766,394.54120154774597 447.3687133499852,368.16936938980604 426.0349957729179,353.69404989291655 411.2980690207428,371.8576954661804" stroke="#444" stroke-linejoin="round" stroke-width="3" /></g><g><polygon fill="#a55" fill-opacity="1.0" points="316.97848550199825,324.9720900662792 305.57621898548024,346.7160837639978 290.47139435741747,337.91572196316565 291.95001907064426,310.3900233862937 308.3102719243742,303.10271890813664" stroke="#444" stroke-linejoin="round" stroke-width="3" /></g><g><polygon fill="#e99" fill-opacity="1.0" points="303.18943201063513,389.531222228139 286.8291791569052,406.87797292185235 298.62496078947095,415.7963072029829 323.2855293449372,403.4143665088723 326.04021419567,387.5632354188272" stroke="#444" stroke-linejoin="round" stroke-width="3" /></g><g><polygon fill="#c66" fill-opacity="1.0" points="439.0785526233502,507.7220465346602 441.3256174155942,481.7968032765235 419.99189983852693,477.38092999519034 404.8870752104641,500.44200484596445 416.6828568430298,519.4197853426514" stroke="#444" stroke-linejoin="round" stroke-width="3" /></g><g><polygon fill="#e88" fill-opacity="1.0" points="464.8922266948287,333.5404742353011 471.52745741446165,356.329348581164 447.3687133499852,368.16936938980604 426.0349957729179,353.69404989291655 437.4372622894359,331.95005619519793" stroke="#444" stroke-linejoin="round" stroke-width="3" /></g><g><polygon fill="#944" fill-opacity="1.0" points="451.1647444921323,298.38294622906426 428.7690487118119,310.0806850370554 437.43726228943586,331.95005619519793 464.89222669482865,333.5404742353011 473.5604402724527,312.67537196243256" stroke="#444" stroke-linejoin="round" stroke-width="3" /></g><g><polygon fill="#944" fill-opacity="1.0" points="486.2643841666368,376.20036290685175 471.15955953857394,399.26143775762586 446.49899098310766,394.54120154774597 447.3687133499852,368.16936938980604 471.52745741446165,356.329348581164" stroke="#444" stroke-linejoin="round" stroke-width="3" /></g><g><polygon fill="#a55" fill-opacity="1.0" points="319.99711826127896,458.4561958745336 320.8668406281565,474.81883714760477 345.02558469263295,473.038262554519 359.76251144480807,454.87461698125514 344.65768681674524,446.074255180423" stroke="#444" stroke-linejoin="round" stroke-width="3" /></g><g><polygon fill="#faa" fill-opacity="1.0" points="362.49656438370204,411.261252125394 350.7007827511363,392.2834716287071 326.04021419567,387.5632354188272 323.2855293449372,403.4143665088723 346.1363115299721,418.5485566035511" stroke="#444" stroke-linejoin="round" stroke-width="3" /></g><g><polygon fill="#944" fill-opacity="1.0" points="364.8974451175808,314.6157401146444 353.101663485015,305.69740583351376 344.43344990739104,326.5625081063823 351.068680627024,349.3513824522452 363.41882040435394,342.1414386915162" stroke="#444" stroke-linejoin="round" stroke-width="3" /></g><g><polygon fill="#a55" fill-opacity="1.0" points="362.49656438370204,411.261252125394 371.164777961326,433.1306232835365 359.76251144480807,454.87461698125514 344.65768681674524,446.074255180423 346.1363115299721,418.5485566035511" stroke="#444" stroke-linejoin="round" stroke-width="3" /></g><g><polygon fill="#e99" fill-opacity="1.0" points="377.471821804265,511.57289972612966 380.2265066549978,495.72176863608456 357.37572446996296,497.6897554453963 341.01547161623296,515.0365061391097 352.8112532487987,523.9548404202403" stroke="#444" stroke-linejoin="round" stroke-width="3" /></g><g><polygon fill="#b55" fill-opacity="1.0" points="351.068680627024,349.3513824522453 365.8056073791991,369.222396777933 387.13932495626636,373.6382700592662 386.26960258938885,357.275628786195 363.41882040435394,342.14143869151627" stroke="#444" stroke-linejoin="round" stroke-width="3" /></g><g><polygon fill="#c66" fill-opacity="1.0" points="471.15955953857394,399.2614377576259 482.9553411711397,418.23921825431273 505.35103695146006,406.5414794463216 507.59810174370404,380.6162361881849 486.2643841666368,376.20036290685175" stroke="#444" stroke-linejoin="round" stroke-width="3" /></g><g><polygon fill="#faa" fill-opacity="1.0" points="377.471821804265,511.57289972612966 400.32260398929986,526.7070898208085 416.6828568430298,519.4197853426514 404.8870752104641,500.44200484596445 380.2265066549978,495.72176863608456" stroke="#444" stroke-linejoin="round" stroke-width="3" /></g><g><polygon fill="#a55" fill-opacity="1.0" points="411.2980690207428,371.8576954661804 387.13932495626636,373.6382700592662 386.26960258938885,357.275628786195 410.93017114485514,344.8936880920844 426.0349957729179,353.69404989291655" stroke="#444" stroke-linejoin="round" stroke-width="3" /></g><g><polygon fill="#944" fill-opacity="1.0" points="405.25497308635175,457.5099156695026 417.60511286368177,450.2999719087736 419.08373757690856,422.7742733319017 407.2879559443428,413.85593905077116 398.6197423667188,434.7210413236397" stroke="#444" stroke-linejoin="round" stroke-width="3" /></g><g><polygon fill="#a55" fill-opacity="1.0" points="412.40879585808193,317.36798951521246 428.7690487118119,310.0806850370554 437.43726228943586,331.95005619519793 426.0349957729179,353.69404989291655 410.93017114485514,344.8936880920844" stroke="#444" stroke-linejoin="round" stroke-width="3" /></g><g><polygon fill="#b55" fill-opacity="1.0" points="440.4558950487166,465.43416200345234 441.3256174155942,481.7968032765235 419.9918998385269,477.38092999519034 405.25497308635175,457.5099156695026 417.60511286368177,450.2999719087736" stroke="#444" stroke-linejoin="round" stroke-width="3" /></g><g><polygon fill="#e99" fill-opacity="1.0" points="419.08373757690856,422.7742733319017 443.74430613237485,410.3923326377911 446.49899098310766,394.54120154774597 423.6482087980728,396.5091883570577 407.28795594434285,413.85593905077116" stroke="#444" stroke-linejoin="round" stroke-width="3" /></g><g><polygon fill="#faa" fill-opacity="1.0" points="471.15955953857394,399.2614377576259 482.9553411711397,418.23921825431273 466.5950883174097,425.52652273246986 443.74430613237485,410.3923326377911 446.49899098310766,394.54120154774597" stroke="#444" stroke-linejoin="round" stroke-width="3" /></g><g><polygon fill="#944" fill-opacity="1.0" points="485.3562219050184,321.59370624356313 483.8775971917916,349.11940482043497 471.52745741446165,356.329348581164 464.89222669482865,333.5404742353011 473.5604402724527,312.67537196243256" stroke="#444" stroke-linejoin="round" stroke-width="3" /></g><g><polygon fill="#b55" fill-opacity="1.0" points="486.2643841666368,376.20036290685175 507.59810174370404,380.6162361881849 506.72837937682647,364.25359491511375 483.8775971917916,349.119404820435 471.52745741446165,356.329348581164" stroke="#444" stroke-linejoin="round" stroke-width="3" /></g><g><polygon fill="#e77" fill-opacity="1.0" points="326.90993656254756,361.1914032608873 305.57621898548024,346.7160837639978 290.47139435741747,337.9157219631656 302.2671759899832,346.8340562442962 324.6628717703036,361.12648197766447" stroke="#444" stroke-linejoin="round" stroke-width="3" /></g><g><polygon fill="#844" fill-opacity="1.0" points="326.90993656254756,361.1914032608873 326.04021419567,387.5632354188272 323.2855293449372,403.4143665088724 322.4158069780596,387.0517252358012 324.6628717703036,361.1264819776645" stroke="#444" stroke-linejoin="round" stroke-width="3" /></g><g><polygon fill="#d66" fill-opacity="1.0" points="326.90993656254756,361.1914032608872 351.068680627024,349.3513824522452 363.41882040435394,342.1414386915162 347.058567550624,349.42874316967334 324.6628717703036,361.12648197766447" stroke="#444" stroke-linejoin="round" stroke-width="3" /></g><g><polygon fill="#e77" fill-opacity="1.0" points="356.453468449311,454.99258946155356 344.65768681674524,446.074255180423 359.76251144480807,454.87461698125514 381.09622902187533,469.3499364781446 378.8491642296314,469.2850151949219" stroke="#444" stroke-linejoin="round" stroke-width="3" /></g><g><polygon fill="#844" fill-opacity="1.0" points="377.471821804265,511.57289972612966 380.2265066549978,495.72176863608456 381.09622902187533,469.3499364781446 378.8491642296314,469.28501519492187 376.60209943738744,495.21025845305854" stroke="#444" stroke-linejoin="round" stroke-width="3" /></g><g><polygon fill="#d66" fill-opacity="1.0" points="346.1363115299721,418.54855660355105 362.49656438370204,411.261252125394 384.89226016402245,399.56351331740285 382.64519537177847,399.49859203418004 358.48645130730205,411.33861284282204" stroke="#444" stroke-linejoin="round" stroke-width="3" /></g><g><polygon fill="#d66" fill-opacity="1.0" points="405.25497308635175,457.5099156695026 417.60511286368177,450.2999719087736 401.2448600099518,457.58727638693074 378.8491642296314,469.28501519492187 381.09622902187533,469.3499364781446" stroke="#444" stroke-linejoin="round" stroke-width="3" /></g><g><polygon fill="#844" fill-opacity="1.0" points="384.89226016402245,399.56351331740285 387.13932495626636,373.6382700592662 386.26960258938885,357.275628786195 383.51491773865604,373.12675987624016 382.64519537177847,399.4985920341801" stroke="#444" stroke-linejoin="round" stroke-width="3" /></g><g><polygon fill="#e77" fill-opacity="1.0" points="382.64519537177847,399.49859203418004 403.97891294884573,413.9739115310695 419.08373757690856,422.7742733319017 407.28795594434285,413.85593905077116 384.89226016402245,399.56351331740285" stroke="#444" stroke-linejoin="round" stroke-width="3" /></g><g><polygon fill="#e77" fill-opacity="1.0" points="422.72595277742084,353.812022373215 445.12164855774125,368.1044481065833 447.3687133499852,368.16936938980604 426.0349957729179,353.69404989291655 410.93017114485514,344.8936880920844" stroke="#444" stroke-linejoin="round" stroke-width="3" /></g><g><polygon fill="#844" fill-opacity="1.0" points="442.8745837654973,394.02969136471995 443.74430613237485,410.3923326377911 446.49899098310766,394.541201547746 447.3687133499852,368.16936938980604 445.12164855774125,368.1044481065833" stroke="#444" stroke-linejoin="round" stroke-width="3" /></g><g><polygon fill="#d66" fill-opacity="1.0" points="467.51734433806166,356.4067092985921 483.87759719179166,349.119404820435 471.52745741446165,356.329348581164 447.3687133499852,368.16936938980604 445.1216485577413,368.1044481065833" stroke="#444" stroke-linejoin="round" stroke-width="3" /></g><g><polygon fill="#b55" fill-opacity="1.0" points="346.1363115299721,418.5485566035511 323.28552934493723,403.4143665088723 322.41580697805966,387.0517252358012 343.7495245551269,391.4675985171344 358.4864513073021,411.3386128428221" stroke="#444" stroke-linejoin="round" stroke-width="3" /></g><g><polygon fill="#944" fill-opacity="1.0" points="358.4864513073021,411.33861284282204 365.12168202693505,434.127487188685 356.453468449311,454.99258946155356 344.6576868167453,446.07425518042294 346.1363115299721,418.54855660355105" stroke="#444" stroke-linejoin="round" stroke-width="3" /></g><g><polygon fill="#faa" fill-opacity="1.0" points="347.058567550624,349.4287431696734 363.41882040435394,342.14143869151627 386.2696025893888,357.275628786195 383.51491773865604,373.12675987624016 358.8543491831897,368.4065236663603" stroke="#444" stroke-linejoin="round" stroke-width="3" /></g><g><polygon fill="#e99" fill-opacity="1.0" points="383.51491773865604,373.12675987624016 406.3656999236909,371.15877306692835 422.72595277742084,353.812022373215 410.93017114485514,344.8936880920844 386.26960258938885,357.275628786195" stroke="#444" stroke-linejoin="round" stroke-width="3" /></g><g><polygon fill="#a55" fill-opacity="1.0" points="403.97891294884573,413.9739115310695 392.5766464323278,435.71790522878814 401.2448600099518,457.5872763869307 417.60511286368177,450.2999719087736 419.08373757690856,422.77427333190167" stroke="#444" stroke-linejoin="round" stroke-width="3" /></g><g><polygon fill="#a55" fill-opacity="1.0" points="442.8745837654973,394.02969136471995 443.74430613237485,410.3923326377911 419.08373757690856,422.7742733319017 403.97891294884573,413.9739115310695 418.7158397010209,395.81026595780565" stroke="#444" stroke-linejoin="round" stroke-width="3" /></g><g><polygon fill="#c66" fill-opacity="1.0" points="347.058567550624,349.42874316967334 324.6628717703036,361.12648197766447 322.4158069780596,387.05172523580114 343.7495245551269,391.4675985171343 358.8543491831897,368.4065236663602" stroke="#444" stroke-linejoin="round" stroke-width="3" /></g><g><polygon fill="#944" fill-opacity="1.0" points="358.8543491831897,368.4065236663602 383.51491773865604,373.1267598762401 382.64519537177847,399.49859203418004 358.48645130730205,411.33861284282204 343.7495245551269,391.4675985171343" stroke="#444" stroke-linejoin="round" stroke-width="3" /></g><g><polygon fill="#944" fill-opacity="1.0" points="356.453468449311,454.99258946155356 365.121682026935,434.12748718868505 392.5766464323278,435.7179052287882 401.2448600099518,457.58727638693074 378.8491642296314,469.2850151949219" stroke="#444" stroke-linejoin="round" stroke-width="3" /></g><g><polygon fill="#e88" fill-opacity="1.0" points="358.48645130730205,411.3386128428221 365.121682026935,434.12748718868505 392.5766464323278,435.7179052287882 403.97891294884573,413.9739115310696 382.64519537177847,399.4985920341801" stroke="#444" stroke-linejoin="round" stroke-width="3" /></g><g><polygon fill="#844" fill-opacity="1.0" points="383.51491773865604,373.1267598762401 406.3656999236909,371.15877306692835 418.7158397010209,395.81026595780565 403.97891294884573,413.9739115310695 382.64519537177847,399.49859203418004" stroke="#444" stroke-linejoin="round" stroke-width="3" /></g><g><polygon fill="#d66" fill-opacity="1.0" points="445.1216485577413,368.1044481065833 442.8745837654973,394.02969136471995 418.7158397010209,395.81026595780565 406.3656999236909,371.15877306692835 422.72595277742084,353.812022373215" stroke="#444" stroke-linejoin="round" stroke-width="3" /></g><g><polygon fill="#a55" fill-opacity="1.0" points="343.7495245551269,391.4675985171343 332.34725803860897,396.10941531086246 341.015471616233,375.24431303799395 357.37572446996296,357.8975623442805 358.8543491831897,368.4065236663602" stroke="#444" stroke-linejoin="round" stroke-width="3" /></g><g><polygon fill="#fbb" fill-opacity="1.0" points="353.71941551041704,438.76930398241313 375.05313308748435,443.18517726374637 399.2118771519607,441.4046026706606 392.5766464323278,435.7179052287882 365.121682026935,434.12748718868505" stroke="#444" stroke-linejoin="round" stroke-width="3" /></g><g><polygon fill="#b55" fill-opacity="1.0" points="418.7158397010209,395.81026595780565 425.35107042065385,401.49696339967807 416.6828568430298,379.6275922415355 404.8870752104641,360.6498117448487 406.3656999236909,371.15877306692835" stroke="#444" stroke-linejoin="round" stroke-width="3" /></g></svg>
